<svg width="50" height="42" viewBox="0 0 50 42" fill="none" xmlns="http://www.w3.org/2000/svg">
<rect y="2" width="50" height="40" rx="10" fill="black"/>
<path d="M25.7598 23.6309H21.5586V33H16.2852V7.40625H25.7949C28.8184 7.40625 31.1504 8.08008 32.791 9.42773C34.4316 10.7754 35.252 12.6797 35.252 15.1406C35.252 16.8867 34.8711 18.3457 34.1094 19.5176C33.3594 20.6777 32.2168 21.6035 30.6816 22.2949L36.2188 32.7539V33H30.5586L25.7598 23.6309ZM21.5586 19.3594H25.8125C27.1367 19.3594 28.1621 19.0254 28.8887 18.3574C29.6152 17.6777 29.9785 16.7461 29.9785 15.5625C29.9785 14.3555 29.6328 13.4062 28.9414 12.7148C28.2617 12.0234 27.2129 11.6777 25.7949 11.6777H21.5586V19.3594Z" fill="white"/>
</svg>
